<svg width="50" height="51" viewBox="0 0 50 51" fill="none" xmlns="http://www.w3.org/2000/svg">
<path d="M25.7812 39.5078C25.4557 39.8984 25.4557 40.2891 25.7812 40.6797C26.1068 40.9401 26.4648 40.9401 26.8555 40.6797L37.3047 30.2305C37.5651 29.8398 37.5651 29.4818 37.3047 29.1562L26.7578 18.6094C26.5625 18.4141 26.3672 18.3164 26.1719 18.3164C25.9766 18.3164 25.7812 18.4141 25.5859 18.6094C25.3255 18.9349 25.3255 19.293 25.5859 19.6836L34.8633 28.8633H0.78125C0.325521 28.9284 0.0651042 29.1888 0 29.6445C0.0651042 30.1654 0.325521 30.4258 0.78125 30.4258H34.8633L25.7812 39.5078ZM49.1211 14.9961L35.2539 1.12891C34.668 0.542969 33.9518 0.25 33.1055 0.25H18.75C16.9922 0.315104 15.5273 0.933594 14.3555 2.10547C13.1836 3.27734 12.5651 4.74219 12.5 6.5V24.4688C12.5651 24.9245 12.8255 25.1849 13.2812 25.25C13.737 25.1849 13.9974 24.9245 14.0625 24.4688V6.5C14.1276 5.19792 14.5833 4.09115 15.4297 3.17969C16.3411 2.33333 17.4479 1.8776 18.75 1.8125H32.8125V13.5312C32.8125 14.638 33.2031 15.5495 33.9844 16.2656C34.7005 17.0469 35.612 17.4375 36.7188 17.4375H48.4375V44C48.3724 45.3021 47.9167 46.4089 47.0703 47.3203C46.1589 48.1667 45.0521 48.6224 43.75 48.6875H18.75C17.4479 48.6224 16.3411 48.1667 15.4297 47.3203C14.5833 46.4089 14.1276 45.3021 14.0625 44V35.4062C13.9974 34.9505 13.737 34.6901 13.2812 34.625C12.8255 34.6901 12.5651 34.9505 12.5 35.4062V44C12.5651 45.7578 13.1836 47.2227 14.3555 48.3945C15.5273 49.5664 16.9922 50.1849 18.75 50.25H43.75C45.5078 50.1849 46.9727 49.5664 48.1445 48.3945C49.3164 47.2227 49.9349 45.7578 50 44V17.1445C50 16.2982 49.707 15.582 49.1211 14.9961ZM36.7188 15.875C35.2865 15.7448 34.5052 14.9635 34.375 13.5312V2.49609L47.7539 15.875H36.7188Z" fill="#A8B324"/>
</svg>
