<svg width="64" height="45" viewBox="0 0 64 45" fill="none" xmlns="http://www.w3.org/2000/svg">
<path d="M19.6523 1.25391C19.3268 0.667969 18.8385 0.375 18.1875 0.375C17.5365 0.375 17.0482 0.667969 16.7227 1.25391L1.09766 41.9766C0.83724 42.888 1.13021 43.5716 1.97656 44.0273C2.88802 44.2878 3.57161 43.9948 4.02734 43.1484L8.42188 31.625H27.9531L32.3477 43.1484C32.6732 43.7995 33.1615 44.125 33.8125 44.125C34.0078 44.125 34.2031 44.0924 34.3984 44.0273C35.2448 43.5716 35.5378 42.888 35.2773 41.9766L19.6523 1.25391ZM9.69141 28.5L18.1875 6.23438L26.6836 28.5H9.69141ZM61.9375 12.7773C61.026 12.9076 60.5378 13.4284 60.4727 14.3398V17.1719C58.0638 14.3724 54.9714 12.9076 51.1953 12.7773C47.6797 12.9076 44.75 14.1445 42.4062 16.4883C40.0625 18.832 38.8581 21.7943 38.793 25.375V31.625C38.8581 35.1406 40.0625 38.1029 42.4062 40.5117C44.75 42.8555 47.6797 44.0599 51.1953 44.125C55.0365 43.9948 58.1615 42.5625 60.5703 39.8281V42.5625C60.5052 43.5391 60.9609 44.0599 61.9375 44.125C62.9141 44.0599 63.4349 43.5065 63.5 42.4648V14.3398C63.4349 13.4284 62.9141 12.9076 61.9375 12.7773ZM60.375 31.625C60.3099 34.2943 59.3984 36.5078 57.6406 38.2656C55.8828 40.0234 53.7018 40.9349 51.0977 41C48.4284 40.9349 46.2148 40.0234 44.457 38.2656C42.7643 36.5078 41.8854 34.2943 41.8203 31.625V25.375C41.8854 22.7057 42.7969 20.4922 44.5547 18.7344C46.3125 16.9115 48.4935 15.9674 51.0977 15.9023C53.7669 15.9674 55.9479 16.9115 57.6406 18.7344C59.3984 20.4922 60.3099 22.7057 60.375 25.375V31.625Z" fill="#A8B324"/>
</svg>
