<svg width="64" height="51" viewBox="0 0 64 51" fill="none" xmlns="http://www.w3.org/2000/svg">
<path d="M21.3125 22.125C20.0755 22.1901 19.4245 22.8411 19.3594 24.0781C19.4896 25.25 20.1406 25.901 21.3125 26.0312C22.4844 25.901 23.1354 25.25 23.2656 24.0781C23.1354 22.8411 22.4844 22.1901 21.3125 22.125ZM22.9727 8.0625H19.3594C18.1224 8.0625 17.1133 8.48568 16.332 9.33203C15.4857 10.1133 15.0625 11.1224 15.0625 12.3594C15.1276 13.3359 15.6484 13.8568 16.625 13.9219C17.6016 13.8568 18.1224 13.3359 18.1875 12.3594C18.2526 11.6432 18.6432 11.2526 19.3594 11.1875H22.9727C23.8841 11.2526 24.3724 11.7409 24.4375 12.6523C24.4375 13.3034 24.1445 13.7591 23.5586 14.0195L20.6289 15.582C20.043 15.8424 19.75 16.2982 19.75 16.9492V19C19.8151 19.9766 20.3359 20.4974 21.3125 20.5625C22.2891 20.4974 22.8099 19.9766 22.875 19V17.9258L25.0234 16.8516C26.5859 15.9401 27.4323 14.5404 27.5625 12.6523C27.4974 11.3503 27.0417 10.276 26.1953 9.42969C25.349 8.58333 24.2747 8.1276 22.9727 8.0625ZM41.625 17.4375C41.4948 12.5547 39.5091 8.51823 35.668 5.32812C31.8268 2.07292 27.0417 0.380208 21.3125 0.25C15.5833 0.380208 10.7982 2.07292 6.95703 5.32812C3.11589 8.51823 1.13021 12.5547 1 17.4375C1.0651 21.5391 2.52995 25.1198 5.39453 28.1797C4.61328 29.7422 3.79948 31.0768 2.95312 32.1836C2.17188 33.2253 1.71615 33.7786 1.58594 33.8438C1 34.5599 0.869792 35.4062 1.19531 36.3828C1.65104 37.2292 2.36719 37.6849 3.34375 37.75C5.94792 37.6849 8.29167 37.2617 10.375 36.4805C12.4583 35.6992 14.2161 34.8529 15.6484 33.9414C17.4062 34.3971 19.2943 34.625 21.3125 34.625C27.0417 34.4948 31.8268 32.8021 35.668 29.5469C39.5091 26.3568 41.4948 22.3203 41.625 17.4375ZM21.3125 31.5C19.6198 31.5 17.9596 31.3047 16.332 30.9141L15.0625 30.5234L13.8906 31.3047C12.9141 32.0208 11.6771 32.6719 10.1797 33.2578C8.68229 33.9089 6.98958 34.332 5.10156 34.5273C6.14323 33.2904 7.1849 31.5977 8.22656 29.4492L9.20312 27.5938L7.73828 26.0312C5.32943 23.4922 4.125 20.6276 4.125 17.4375C4.25521 13.4661 5.91536 10.1458 9.10547 7.47656C12.3607 4.8724 16.4297 3.50521 21.3125 3.375C26.1953 3.50521 30.2643 4.8724 33.5195 7.47656C36.7096 10.1458 38.3698 13.4661 38.5 17.4375C38.3698 21.4089 36.6771 24.7292 33.4219 27.3984C30.2318 30.0026 26.1953 31.3698 21.3125 31.5ZM60.1797 42.7305C62.3281 39.931 63.4349 36.7083 63.5 33.0625C63.3698 28.1797 61.5469 24.1432 58.0312 20.9531C54.5156 17.6979 50.0885 16.0052 44.75 15.875C44.6849 15.875 44.6523 15.875 44.6523 15.875C44.6523 15.9401 44.6523 16.0052 44.6523 16.0703C44.7174 16.526 44.75 16.9818 44.75 17.4375C44.75 17.9583 44.7174 18.4792 44.6523 19C44.6523 19 44.6849 19 44.75 19C49.1771 19.1302 52.8555 20.4974 55.7852 23.1016C58.7148 25.7708 60.2448 29.0911 60.375 33.0625C60.375 35.9271 59.4961 38.5312 57.7383 40.875L56.4688 42.6328L57.543 44.3906C58.194 45.4323 58.8125 46.3112 59.3984 47.0273C57.5755 46.832 55.7852 46.3763 54.0273 45.6602L52.8555 45.1719L51.5859 45.6602C49.4375 46.6367 47.1589 47.125 44.75 47.125C41.0391 47.0599 37.8164 46.0508 35.082 44.0977C32.3477 42.0794 30.5247 39.5078 29.6133 36.3828C28.6367 36.7083 27.6276 37.0013 26.5859 37.2617C27.6927 41.0378 29.8737 44.1302 33.1289 46.5391C36.3841 48.9479 40.2578 50.1849 44.75 50.25C47.6797 50.25 50.3815 49.6641 52.8555 48.4922C55.1992 49.599 57.9661 50.1849 61.1562 50.25C62.1328 50.1849 62.849 49.7292 63.3047 48.8828C63.6302 47.9062 63.4674 47.0599 62.8164 46.3438C62.7513 46.2135 62.4583 45.8229 61.9375 45.1719C61.4167 44.5859 60.8307 43.7721 60.1797 42.7305ZM38.9883 33.2578C38.3372 33.974 38.3372 34.7227 38.9883 35.5039L42.6016 39.1172C42.9271 39.4427 43.2852 39.6055 43.6758 39.6055C44.1315 39.6055 44.5221 39.4427 44.8477 39.1172L52.8555 31.0117C53.5065 30.2956 53.5065 29.5794 52.8555 28.8633C52.1393 28.2122 51.4232 28.2122 50.707 28.8633L43.6758 35.7969L41.1367 33.2578C40.4206 32.6719 39.7044 32.6719 38.9883 33.2578Z" fill="#A8B324"/>
</svg>
