<svg width="50" height="45" viewBox="0 0 50 45" fill="none" xmlns="http://www.w3.org/2000/svg">
<path d="M14.0625 22.25H7.8125C6.83594 22.3151 6.3151 22.8359 6.25 23.8125C6.3151 24.7891 6.83594 25.3099 7.8125 25.375H14.0625C15.0391 25.3099 15.5599 24.7891 15.625 23.8125C15.5599 22.8359 15.0391 22.3151 14.0625 22.25ZM14.0625 16H7.8125C6.83594 16.0651 6.3151 16.5859 6.25 17.5625C6.3151 18.5391 6.83594 19.0599 7.8125 19.125H14.0625C15.0391 19.0599 15.5599 18.5391 15.625 17.5625C15.5599 16.5859 15.0391 16.0651 14.0625 16ZM7.8125 12.875H14.0625C15.0391 12.8099 15.5599 12.2891 15.625 11.3125C15.5599 10.3359 15.0391 9.8151 14.0625 9.75H7.8125C6.83594 9.8151 6.3151 10.3359 6.25 11.3125C6.3151 12.2891 6.83594 12.8099 7.8125 12.875ZM43.75 0.375H6.25C4.49219 0.440104 3.02734 1.05859 1.85547 2.23047C0.683594 3.40234 0.0651042 4.86719 0 6.625V37.875C0.0651042 39.6328 0.683594 41.0977 1.85547 42.2695C3.02734 43.4414 4.49219 44.0599 6.25 44.125H43.75C45.5078 44.0599 46.9727 43.4414 48.1445 42.2695C49.3164 41.0977 49.9349 39.6328 50 37.875V6.625C49.9349 4.86719 49.3164 3.40234 48.1445 2.23047C46.9727 1.05859 45.5078 0.440104 43.75 0.375ZM18.75 41H6.25C5.33854 41 4.58984 40.707 4.00391 40.1211C3.41797 39.5352 3.125 38.7865 3.125 37.875V6.625C3.125 5.71354 3.41797 4.96484 4.00391 4.37891C4.58984 3.79297 5.33854 3.5 6.25 3.5H18.75V41ZM46.875 37.875C46.875 38.7865 46.582 39.5352 45.9961 40.1211C45.4102 40.707 44.6615 41 43.75 41H21.875V3.5H43.75C44.6615 3.5 45.4102 3.79297 45.9961 4.37891C46.582 4.96484 46.875 5.71354 46.875 6.625V37.875Z" fill="#A8B324"/>
</svg>
