<svg width="51" height="51" viewBox="0 0 51 51" fill="none" xmlns="http://www.w3.org/2000/svg">
<path d="M26 0.25C24.3724 0.25 22.6797 0.41276 20.9219 0.738281C15.974 1.77995 11.7747 4.02604 8.32422 7.47656C4.80859 10.9922 2.52995 15.224 1.48828 20.1719C0.511719 25.901 1.09766 31.0117 3.24609 35.5039C5.45964 40.0612 8.48698 43.6419 12.3281 46.2461C16.2344 48.8503 20.2383 50.1849 24.3398 50.25C25.1862 50.25 26 50.1849 26.7812 50.0547C28.7995 49.6641 30.2318 48.5573 31.0781 46.7344C31.8594 44.9115 31.8268 43.0234 30.9805 41.0703C29.8737 38.7266 29.9388 36.5781 31.1758 34.625C32.4128 32.6719 34.3008 31.6302 36.8398 31.5H44.6523C46.4753 31.4349 47.9727 30.8164 49.1445 29.6445C50.3164 28.4076 50.9349 26.9102 51 25.1523C50.9349 20.4648 49.7956 16.2656 47.582 12.5547C45.3685 8.77865 42.3737 5.81641 38.5977 3.66797C34.8216 1.45443 30.6224 0.315104 26 0.25ZM44.6523 29.9375H36.8398C33.8451 30.0026 31.5013 31.3047 29.8086 33.8438C28.3112 36.4479 28.2135 39.1172 29.5156 41.8516C30.2318 43.2839 30.2318 44.7487 29.5156 46.2461C29.3203 46.6367 28.9948 47.0924 28.5391 47.6133C28.0833 48.069 27.4323 48.362 26.5859 48.4922C25.8698 48.6224 25.1211 48.6875 24.3398 48.6875C21.4102 48.6875 18.513 47.9388 15.6484 46.4414C12.7839 44.8789 10.2448 42.7956 8.03125 40.1914C5.6875 37.3268 4.09245 34.2018 3.24609 30.8164C2.39974 27.4961 2.33464 24.0456 3.05078 20.4648C4.02734 15.8424 6.14323 11.9036 9.39844 8.64844C12.6536 5.39323 16.5924 3.27734 21.2148 2.30078C22.8424 1.97526 24.4375 1.8125 26 1.8125C30.362 1.8776 34.3008 2.95182 37.8164 5.03516C41.332 7.11849 44.1315 9.88542 46.2148 13.3359C48.2982 16.8516 49.3724 20.7904 49.4375 25.1523C49.3724 26.5195 48.8841 27.6589 47.9727 28.5703C47.0612 29.4167 45.9544 29.8724 44.6523 29.9375ZM10.375 24.4688C9.26823 24.4688 8.35677 24.8594 7.64062 25.6406C6.85938 26.3568 6.46875 27.2682 6.46875 28.375C6.46875 29.4818 6.85938 30.3932 7.64062 31.1094C8.35677 31.8906 9.26823 32.2812 10.375 32.2812C11.4818 32.2812 12.3932 31.8906 13.1094 31.1094C13.8906 30.3932 14.2812 29.4818 14.2812 28.375C14.2812 27.2682 13.8906 26.3568 13.1094 25.6406C12.3932 24.8594 11.4818 24.4688 10.375 24.4688ZM10.375 30.7188C8.94271 30.5885 8.16146 29.8073 8.03125 28.375C8.16146 26.9427 8.94271 26.1615 10.375 26.0312C11.8073 26.1615 12.5885 26.9427 12.7188 28.375C12.5885 29.8073 11.8073 30.5885 10.375 30.7188ZM13.5 11.9688C12.3932 11.9688 11.4818 12.3594 10.7656 13.1406C9.98438 13.8568 9.59375 14.7682 9.59375 15.875C9.59375 16.9818 9.98438 17.8932 10.7656 18.6094C11.4818 19.3906 12.3932 19.7812 13.5 19.7812C14.6068 19.7812 15.5182 19.3906 16.2344 18.6094C17.0156 17.8932 17.4062 16.9818 17.4062 15.875C17.4062 14.7682 17.0156 13.8568 16.2344 13.1406C15.5182 12.3594 14.6068 11.9688 13.5 11.9688ZM13.5 18.2188C12.0677 18.0885 11.2865 17.3073 11.1562 15.875C11.2865 14.4427 12.0677 13.6615 13.5 13.5312C14.9323 13.6615 15.7135 14.4427 15.8438 15.875C15.7135 17.3073 14.9323 18.0885 13.5 18.2188ZM26 5.71875C24.8932 5.71875 23.9818 6.10938 23.2656 6.89062C22.4844 7.60677 22.0938 8.51823 22.0938 9.625C22.0938 10.7318 22.4844 11.6432 23.2656 12.3594C23.9818 13.1406 24.8932 13.5312 26 13.5312C27.1068 13.5312 28.0182 13.1406 28.7344 12.3594C29.5156 11.6432 29.9062 10.7318 29.9062 9.625C29.9062 8.51823 29.5156 7.60677 28.7344 6.89062C28.0182 6.10938 27.1068 5.71875 26 5.71875ZM26 11.9688C24.5677 11.8385 23.7865 11.0573 23.6562 9.625C23.7865 8.19271 24.5677 7.41146 26 7.28125C27.4323 7.41146 28.2135 8.19271 28.3438 9.625C28.2135 11.0573 27.4323 11.8385 26 11.9688ZM38.5 11.9688C37.3932 11.9688 36.4818 12.3594 35.7656 13.1406C34.9844 13.8568 34.5938 14.7682 34.5938 15.875C34.5938 16.9818 34.9844 17.8932 35.7656 18.6094C36.4818 19.3906 37.3932 19.7812 38.5 19.7812C39.6068 19.7812 40.5182 19.3906 41.2344 18.6094C42.0156 17.8932 42.4062 16.9818 42.4062 15.875C42.4062 14.7682 42.0156 13.8568 41.2344 13.1406C40.5182 12.3594 39.6068 11.9688 38.5 11.9688ZM38.5 18.2188C37.0677 18.0885 36.2865 17.3073 36.1562 15.875C36.2865 14.4427 37.0677 13.6615 38.5 13.5312C39.9323 13.6615 40.7135 14.4427 40.8438 15.875C40.7135 17.3073 39.9323 18.0885 38.5 18.2188Z" fill="#A8B324"/>
</svg>
