<svg width="51" height="51" viewBox="0 0 51 51" fill="none" xmlns="http://www.w3.org/2000/svg">
<path d="M39.0625 25.25C39.0625 28.0495 38.3138 30.556 36.8164 32.7695C35.3841 35.0482 33.431 36.806 30.957 38.043C30.5013 38.2383 30.3711 38.5638 30.5664 39.0195C30.6966 39.3451 30.9245 39.5078 31.25 39.5078C31.3802 39.5078 31.4779 39.4753 31.543 39.4102C34.3424 38.1081 36.556 36.1875 38.1836 33.6484C39.7461 31.1094 40.5599 28.3099 40.625 25.25C40.5599 24.7943 40.2995 24.5339 39.8438 24.4688C39.388 24.5339 39.1276 24.7943 39.0625 25.25ZM13.2812 25.25C13.2812 24.1432 12.8906 23.2318 12.1094 22.5156C11.3932 21.7344 10.4818 21.3438 9.375 21.3438C8.26823 21.3438 7.35677 21.7344 6.64062 22.5156C5.85938 23.2318 5.46875 24.1432 5.46875 25.25C5.46875 26.3568 5.85938 27.2682 6.64062 27.9844C7.35677 28.7656 8.26823 29.1562 9.375 29.1562C10.4818 29.1562 11.3932 28.7656 12.1094 27.9844C12.8906 27.2682 13.2812 26.3568 13.2812 25.25ZM9.375 27.5938C7.94271 27.4635 7.16146 26.6823 7.03125 25.25C7.16146 23.8177 7.94271 23.0365 9.375 22.9062C10.8073 23.0365 11.5885 23.8177 11.7188 25.25C11.5885 26.6823 10.8073 27.4635 9.375 27.5938ZM49.2188 24.4688C48.763 24.5339 48.5026 24.7943 48.4375 25.25C48.3724 29.612 47.2982 33.5508 45.2148 37.0664C43.1315 40.582 40.332 43.3815 36.8164 45.4648C33.3008 47.5482 29.362 48.6224 25 48.6875C20.638 48.6224 16.6992 47.5482 13.1836 45.4648C9.66797 43.3815 6.86849 40.582 4.78516 37.0664C2.70182 33.5508 1.6276 29.612 1.5625 25.25C1.6276 20.888 2.70182 16.9492 4.78516 13.4336C6.86849 9.91797 9.66797 7.11849 13.1836 5.03516C16.6992 2.95182 20.638 1.8776 25 1.8125C31.1198 1.8776 36.4583 3.99349 41.0156 8.16016L35.4492 13.7266C32.4544 11.0573 28.9714 9.6901 25 9.625C21.875 9.6901 19.0755 10.5039 16.6016 12.0664C14.0625 13.694 12.1419 15.9076 10.8398 18.707C10.6445 19.1628 10.7747 19.4883 11.2305 19.6836C11.2956 19.7487 11.3932 19.7812 11.5234 19.7812C11.849 19.7812 12.0768 19.6185 12.207 19.293C13.444 16.819 15.2018 14.8659 17.4805 13.4336C19.694 11.9362 22.2005 11.1875 25 11.1875C28.5807 11.2526 31.7057 12.457 34.375 14.8008L28.8086 20.3672C27.7018 19.4557 26.4323 19 25 19C23.2422 19.0651 21.7773 19.6836 20.6055 20.8555C19.4336 22.0273 18.8151 23.4922 18.75 25.25C18.8151 27.0078 19.4336 28.4727 20.6055 29.6445C21.7773 30.8164 23.2422 31.4349 25 31.5C26.7578 31.4349 28.2227 30.8164 29.3945 29.6445C30.5664 28.4727 31.1849 27.0078 31.25 25.25C31.1849 24.7943 30.9245 24.5339 30.4688 24.4688C30.013 24.5339 29.7526 24.7943 29.6875 25.25C29.6224 26.5521 29.1667 27.6589 28.3203 28.5703C27.4089 29.4167 26.3021 29.8724 25 29.9375C23.6979 29.8724 22.5911 29.4167 21.6797 28.5703C20.8333 27.6589 20.3776 26.5521 20.3125 25.25C20.3776 23.9479 20.8333 22.8411 21.6797 21.9297C22.5911 21.0833 23.6979 20.6276 25 20.5625C25.9766 20.5625 26.8555 20.8555 27.6367 21.4414L24.4141 24.6641C24.1536 25.0547 24.1536 25.4453 24.4141 25.8359C24.6094 25.9661 24.8047 26.0312 25 26.0312C25.1953 26.0312 25.3906 25.9661 25.5859 25.8359L49.8047 1.61719C50.0651 1.22656 50.0651 0.835938 49.8047 0.445312C49.4141 0.184896 49.0234 0.184896 48.6328 0.445312L42.0898 7.08594C37.2721 2.59375 31.5755 0.315104 25 0.25C20.3776 0.315104 16.1784 1.45443 12.4023 3.66797C8.6263 5.88151 5.63151 8.8763 3.41797 12.6523C1.20443 16.4284 0.0651042 20.6276 0 25.25C0.0651042 29.8724 1.20443 34.0716 3.41797 37.8477C5.63151 41.6237 8.6263 44.6185 12.4023 46.832C16.1784 49.0456 20.3776 50.1849 25 50.25C29.6224 50.1849 33.8216 49.0456 37.5977 46.832C41.3737 44.6185 44.3685 41.6237 46.582 37.8477C48.7956 34.0716 49.9349 29.8724 50 25.25C49.9349 24.7943 49.6745 24.5339 49.2188 24.4688ZM18.457 39.4102C18.5221 39.4753 18.6198 39.5078 18.75 39.5078C19.0755 39.5078 19.3034 39.3451 19.4336 39.0195C19.6289 38.5638 19.4987 38.2383 19.043 38.043C15.9831 36.5456 13.7044 34.2669 12.207 31.207C12.0117 30.7513 11.6862 30.6211 11.2305 30.8164C10.7747 31.0117 10.6445 31.3372 10.8398 31.793C12.4674 35.2435 15.0065 37.7826 18.457 39.4102ZM21.0938 40.875C21.0938 41.9818 21.4844 42.8932 22.2656 43.6094C22.9818 44.3906 23.8932 44.7812 25 44.7812C26.1068 44.7812 27.0182 44.3906 27.7344 43.6094C28.5156 42.8932 28.9062 41.9818 28.9062 40.875C28.9062 39.7682 28.5156 38.8568 27.7344 38.1406C27.0182 37.3594 26.1068 36.9688 25 36.9688C23.8932 36.9688 22.9818 37.3594 22.2656 38.1406C21.4844 38.8568 21.0938 39.7682 21.0938 40.875ZM27.3438 40.875C27.2135 42.3073 26.4323 43.0885 25 43.2188C23.5677 43.0885 22.7865 42.3073 22.6562 40.875C22.7865 39.4427 23.5677 38.6615 25 38.5312C26.4323 38.6615 27.2135 39.4427 27.3438 40.875Z" fill="#A8B324"/>
</svg>
