<svg width="57" height="45" viewBox="0 0 57 45" fill="none" xmlns="http://www.w3.org/2000/svg">
<path d="M9.375 30.0625C8.39844 30.1276 7.8776 30.6484 7.8125 31.625C7.8776 32.6016 8.39844 33.1224 9.375 33.1875C10.3516 33.1224 10.8724 32.6016 10.9375 31.625C10.8724 30.6484 10.3516 30.1276 9.375 30.0625ZM28.125 11.3125C29.1016 11.2474 29.6224 10.7266 29.6875 9.75C29.6224 8.77344 29.1016 8.2526 28.125 8.1875C27.1484 8.2526 26.6276 8.77344 26.5625 9.75C26.6276 10.7266 27.1484 11.2474 28.125 11.3125ZM14.0625 14.4375C13.0859 14.5026 12.5651 15.0234 12.5 16C12.5651 16.9766 13.0859 17.4974 14.0625 17.5625C15.0391 17.4974 15.5599 16.9766 15.625 16C15.5599 15.0234 15.0391 14.5026 14.0625 14.4375ZM46.875 30.0625C45.8984 30.1276 45.3776 30.6484 45.3125 31.625C45.3776 32.6016 45.8984 33.1224 46.875 33.1875C47.8516 33.1224 48.3724 32.6016 48.4375 31.625C48.3724 30.6484 47.8516 30.1276 46.875 30.0625ZM42.3828 13.9492L31.25 29.0859C30.2734 28.6953 29.2318 28.5 28.125 28.5C25.7161 28.5651 23.6979 29.4115 22.0703 31.0391C20.4427 32.6016 19.5964 34.5872 19.5312 36.9961C19.5964 37.582 19.8568 37.875 20.3125 37.875C20.7682 37.8099 21.0286 37.5495 21.0938 37.0938C21.1589 35.0755 21.8424 33.4154 23.1445 32.1133C24.4466 30.8112 26.1068 30.1276 28.125 30.0625C30.1432 30.1276 31.8034 30.8112 33.1055 32.1133C34.4076 33.4154 35.0911 35.0755 35.1562 37.0938C35.2214 37.5495 35.4818 37.8099 35.9375 37.875C36.3932 37.8099 36.6536 37.5495 36.7188 37.0938C36.5885 33.9036 35.2539 31.4948 32.7148 29.8672L43.5547 15.0234C43.8151 14.5677 43.7826 14.1771 43.457 13.8516C43.0013 13.526 42.6432 13.5586 42.3828 13.9492ZM28.125 0.375C22.9167 0.440104 18.1966 1.70964 13.9648 4.18359C9.73307 6.72266 6.34766 10.1081 3.80859 14.3398C1.33464 18.5716 0.0651042 23.2917 0 28.5C0 33.9688 1.52995 39.0469 4.58984 43.7344C4.72005 43.9948 4.94792 44.125 5.27344 44.125H50.9766C51.3021 44.125 51.5299 43.9948 51.6602 43.7344C54.7201 39.0469 56.25 33.9688 56.25 28.5C56.1849 23.2917 54.9154 18.5716 52.4414 14.3398C49.9023 10.1081 46.5169 6.72266 42.2852 4.18359C38.0534 1.70964 33.3333 0.440104 28.125 0.375ZM50.4883 42.5625H5.66406C2.92969 38.2005 1.5625 33.513 1.5625 28.5C1.6276 23.6172 2.83203 19.1576 5.17578 15.1211C7.58464 11.1497 10.7747 7.95964 14.7461 5.55078C18.7174 3.20703 23.1771 2.0026 28.125 1.9375C33.0729 2.0026 37.5326 3.20703 41.5039 5.55078C45.5404 7.95964 48.7305 11.1497 51.0742 15.1211C53.418 19.0924 54.6224 23.5521 54.6875 28.5C54.6875 33.513 53.2878 38.2005 50.4883 42.5625Z" fill="#A8B324"/>
</svg>
