<svg width="51" height="45" viewBox="0 0 51 45" fill="none" xmlns="http://www.w3.org/2000/svg">
<path d="M44.6523 0.375H7.15234C5.39453 0.440104 3.92969 1.05859 2.75781 2.23047C1.58594 3.40234 0.967448 4.86719 0.902344 6.625V37.875C0.967448 39.6328 1.58594 41.0977 2.75781 42.2695C3.92969 43.4414 5.39453 44.0599 7.15234 44.125H44.6523C46.4102 44.0599 47.875 43.4414 49.0469 42.2695C50.2188 41.0977 50.8372 39.6328 50.9023 37.875V6.625C50.9023 4.86719 50.3164 3.40234 49.1445 2.23047C47.9727 1.05859 46.4753 0.440104 44.6523 0.375ZM49.4375 37.875C49.3724 39.1771 48.9167 40.2839 48.0703 41.1953C47.1589 42.0417 46.0521 42.4974 44.75 42.5625H7.25C5.94792 42.4974 4.84115 42.0417 3.92969 41.1953C3.08333 40.2839 2.6276 39.1771 2.5625 37.875V14.4375H49.4375V37.875ZM49.4375 12.875H2.5625V6.625C2.6276 5.32292 3.08333 4.21615 3.92969 3.30469C4.84115 2.45833 5.94792 2.0026 7.25 1.9375H44.75C46.0521 2.0026 47.1589 2.45833 48.0703 3.30469C48.9167 4.21615 49.3724 5.32292 49.4375 6.625V12.875ZM12.7188 25.375H39.2812C39.737 25.3099 39.9974 25.0495 40.0625 24.5938C39.9974 24.138 39.737 23.8776 39.2812 23.8125H12.7188C12.263 23.8776 12.0026 24.138 11.9375 24.5938C12.0026 25.0495 12.263 25.3099 12.7188 25.375ZM12.7188 34.75H39.2812C39.737 34.6849 39.9974 34.4245 40.0625 33.9688C39.9974 33.513 39.737 33.2526 39.2812 33.1875H12.7188C12.263 33.2526 12.0026 33.513 11.9375 33.9688C12.0026 34.4245 12.263 34.6849 12.7188 34.75ZM41.918 6.03906L38.5 8.77344L35.082 6.03906C34.6914 5.77865 34.3333 5.8112 34.0078 6.13672C33.7474 6.52734 33.7799 6.88542 34.1055 7.21094L38.0117 10.3359C38.1419 10.4661 38.3047 10.5312 38.5 10.5312C38.6953 10.5312 38.8581 10.4661 38.9883 10.3359L42.8945 7.21094C43.2201 6.88542 43.2526 6.52734 42.9922 6.13672C42.6667 5.8112 42.3086 5.77865 41.918 6.03906Z" fill="#A8B324"/>
</svg>
