<svg width="63" height="51" viewBox="0 0 63 51" fill="none" xmlns="http://www.w3.org/2000/svg">
<path d="M33.5938 29.9375C34.0495 29.8724 34.3099 29.612 34.375 29.1562C34.3099 28.7005 34.0495 28.4401 33.5938 28.375H7.8125V4.9375C7.8125 4.02604 8.10547 3.27734 8.69141 2.69141C9.27734 2.10547 10.026 1.8125 10.9375 1.8125H45.3125C46.224 1.8125 46.9727 2.10547 47.5586 2.69141C48.1445 3.27734 48.4375 4.02604 48.4375 4.9375V8.84375C48.5026 9.29948 48.763 9.5599 49.2188 9.625C49.6745 9.5599 49.9349 9.29948 50 8.84375V4.9375C49.9349 3.63542 49.4792 2.52865 48.6328 1.61719C47.7214 0.770833 46.6146 0.315104 45.3125 0.25H10.9375C9.63542 0.315104 8.52865 0.770833 7.61719 1.61719C6.77083 2.52865 6.3151 3.63542 6.25 4.9375V28.375H1.5625C0.585938 28.4401 0.0651042 28.9609 0 29.9375V31.5C0.0651042 33.2578 0.683594 34.7227 1.85547 35.8945C3.02734 37.0664 4.49219 37.6849 6.25 37.75H33.5938C34.0495 37.6849 34.3099 37.4245 34.375 36.9688C34.3099 36.513 34.0495 36.2526 33.5938 36.1875H6.25C4.94792 36.1224 3.84115 35.6667 2.92969 34.8203C2.08333 33.9089 1.6276 32.8021 1.5625 31.5V29.9375H33.5938ZM58.9844 12.6523H41.0156C40.0391 12.7174 39.2253 13.0755 38.5742 13.7266C37.8581 14.4427 37.5 15.2891 37.5 16.2656V46.7344C37.5 47.7109 37.8581 48.5247 38.5742 49.1758C39.2253 49.8919 40.0391 50.25 41.0156 50.25H58.9844C59.9609 50.25 60.7747 49.8919 61.4258 49.1758C62.1419 48.5247 62.5 47.7109 62.5 46.7344V16.2656C62.5 15.2891 62.1419 14.4427 61.4258 13.7266C60.7747 13.0755 59.9609 12.7174 58.9844 12.6523ZM60.9375 46.7344C60.8073 47.9062 60.1562 48.5573 58.9844 48.6875H41.0156C39.8438 48.5573 39.1927 47.9062 39.0625 46.7344V16.2656C39.1927 15.0938 39.8438 14.4427 41.0156 14.3125H58.9844C60.1562 14.4427 60.8073 15.0938 60.9375 16.2656V46.7344Z" fill="#A8B324"/>
</svg>
