<svg width="48" height="48" viewBox="0 0 48 48" fill="none" xmlns="http://www.w3.org/2000/svg">
<path d="M24 0.8125C23.0234 0.877604 22.5026 1.39844 22.4375 2.375V10.1875C22.5026 11.1641 23.0234 11.6849 24 11.75C24.9766 11.6849 25.4974 11.1641 25.5625 10.1875V4.03516C30.901 4.55599 35.3281 6.67188 38.8438 10.3828C42.3594 14.1589 44.1823 18.7812 44.3125 24.25C44.1823 29.9792 42.1966 34.7643 38.3555 38.6055C34.5143 42.4466 29.7292 44.4323 24 44.5625C18.2708 44.4323 13.4857 42.4466 9.64453 38.6055C5.80339 34.7643 3.81771 29.9792 3.6875 24.25C3.7526 19.3672 5.34766 15.0052 8.47266 11.1641C8.99349 10.3828 8.92839 9.66667 8.27734 9.01562C7.49609 8.42969 6.7474 8.49479 6.03125 9.21094C2.45052 13.5729 0.627604 18.5859 0.5625 24.25C0.627604 28.612 1.70182 32.5508 3.78516 36.0664C5.86849 39.582 8.66797 42.3815 12.1836 44.4648C15.6992 46.5482 19.6055 47.6224 23.9023 47.6875C28.2643 47.6224 32.2031 46.5482 35.7188 44.4648C39.2344 42.3815 42.0664 39.582 44.2148 36.0664C46.2982 32.5508 47.3724 28.612 47.4375 24.25C47.3724 19.888 46.2982 15.9492 44.2148 12.4336C42.1315 8.91797 39.332 6.11849 35.8164 4.03516C32.3008 1.95182 28.362 0.877604 24 0.8125ZM22.9258 25.3242C23.2513 25.6497 23.6094 25.8125 24 25.8125C24.3906 25.8125 24.7487 25.6497 25.0742 25.3242C25.7253 24.6081 25.7253 23.8919 25.0742 23.1758L17.2617 15.3633C16.5456 14.7122 15.8294 14.7122 15.1133 15.3633C14.4622 16.0794 14.4622 16.7956 15.1133 17.5117L22.9258 25.3242Z" fill="#A8B324"/>
</svg>
