<svg width="57" height="51" viewBox="0 0 57 51" fill="none" xmlns="http://www.w3.org/2000/svg">
<path d="M45.3125 47.125H9.375C7.61719 47.0599 6.15234 46.4414 4.98047 45.2695C3.80859 44.0977 3.1901 42.6328 3.125 40.875V11.1875C3.0599 10.2109 2.53906 9.6901 1.5625 9.625C0.585938 9.6901 0.0651042 10.2109 0 11.1875V40.875C0.0651042 43.5443 0.976562 45.7578 2.73438 47.5156C4.49219 49.2734 6.70573 50.1849 9.375 50.25H45.3125C46.2891 50.1849 46.8099 49.6641 46.875 48.6875C46.8099 47.7109 46.2891 47.1901 45.3125 47.125ZM50 0.25H15.625C13.8672 0.315104 12.4023 0.933594 11.2305 2.10547C10.0586 3.27734 9.4401 4.74219 9.375 6.5V34.625C9.4401 36.3828 10.0586 37.8477 11.2305 39.0195C12.4023 40.1914 13.8672 40.8099 15.625 40.875H50C51.7578 40.8099 53.2227 40.1914 54.3945 39.0195C55.5664 37.8477 56.1849 36.3828 56.25 34.625V6.5C56.1849 4.74219 55.5664 3.27734 54.3945 2.10547C53.2227 0.933594 51.7578 0.315104 50 0.25ZM12.5 6.5C12.5 5.58854 12.793 4.83984 13.3789 4.25391C13.9648 3.66797 14.7135 3.375 15.625 3.375H21.875V9.625H12.5V6.5ZM53.125 34.625C53.125 35.5365 52.832 36.2852 52.2461 36.8711C51.6602 37.457 50.9115 37.75 50 37.75H15.625C14.7135 37.75 13.9648 37.457 13.3789 36.8711C12.793 36.2852 12.5 35.5365 12.5 34.625V12.75H53.125V34.625ZM53.125 9.625H25V3.375H50C50.9115 3.375 51.6602 3.66797 52.2461 4.25391C52.832 4.83984 53.125 5.58854 53.125 6.5V9.625Z" fill="#A8B324"/>
</svg>
