<svg width="57" height="52" viewBox="0 0 57 52" fill="none" xmlns="http://www.w3.org/2000/svg">
<path d="M54.6875 20H40.918L34.2773 2.22656C33.8867 1.38021 33.2031 1.08724 32.2266 1.34766C31.3802 1.73828 31.0872 2.42188 31.3477 3.39844L37.5977 20H18.6523L24.9023 3.39844C25.1628 2.42188 24.8698 1.73828 24.0234 1.34766C23.0469 1.08724 22.3633 1.38021 21.9727 2.22656L15.332 20H1.5625C0.585938 20.1302 0.0651042 20.6185 0 21.4648C0.0651042 22.5065 0.585938 23.0599 1.5625 23.125H3.125L8.30078 46.3672C8.6263 47.7995 9.34245 48.9714 10.4492 49.8828C11.556 50.7943 12.8581 51.25 14.3555 51.25H41.8945C43.3268 51.25 44.5964 50.7943 45.7031 49.8828C46.875 48.9714 47.6237 47.7995 47.9492 46.3672L53.125 23.125H54.6875C55.6641 23.0599 56.1849 22.5391 56.25 21.5625C56.1849 20.5859 55.6641 20.0651 54.6875 20ZM44.9219 45.6836C44.4661 47.2461 43.457 48.0599 41.8945 48.125H14.3555C12.793 48.0599 11.7839 47.2461 11.3281 45.6836L6.34766 23.125H14.1602L12.5977 27.2266C12.3372 28.2031 12.6302 28.8867 13.4766 29.2773C13.6719 29.3424 13.8672 29.375 14.0625 29.375C14.7786 29.375 15.2669 29.0495 15.5273 28.3984L17.4805 23.125H38.7695L40.7227 28.3984C40.9831 29.0495 41.4714 29.375 42.1875 29.375C42.3828 29.375 42.5781 29.3424 42.7734 29.2773C43.6198 28.8867 43.9128 28.2031 43.6523 27.2266L42.0898 23.125H49.9023L44.9219 45.6836Z" fill="#A8B324"/>
</svg>
